<svg width="6" height="5" viewBox="0 0 6 5" fill="none" xmlns="http://www.w3.org/2000/svg">
<path d="M5.16148 2.25172C4.96767 1.8434 4.73703 1.5104 4.46956 1.25271L4.18905 1.53322C4.41779 1.75182 4.61704 2.0378 4.78934 2.39396C4.33063 3.34335 3.67951 3.79434 2.78966 3.79434C2.52256 3.79434 2.27654 3.75321 2.05159 3.67095L1.74765 3.9749C2.06007 4.11916 2.4074 4.1913 2.78966 4.1913C3.84932 4.1913 4.63993 3.63941 5.16148 2.53565C5.18245 2.49126 5.19333 2.44278 5.19333 2.39368C5.19333 2.34459 5.18245 2.29611 5.16148 2.25172ZM4.811 0.483931L4.57597 0.248623C4.57187 0.244522 4.56701 0.241269 4.56166 0.239049C4.5563 0.23683 4.55056 0.235687 4.54477 0.235687C4.53897 0.235687 4.53323 0.23683 4.52787 0.239049C4.52252 0.241269 4.51766 0.244522 4.51356 0.248623L3.91057 0.851337C3.57812 0.681527 3.20448 0.596623 2.78966 0.596623C1.73 0.596623 0.939397 1.1485 0.417838 2.25227C0.396874 2.29666 0.386002 2.34514 0.386002 2.39423C0.386002 2.44333 0.396874 2.49181 0.417838 2.5362C0.626204 2.97506 0.87706 3.32683 1.1704 3.5915L0.586986 4.17476C0.578721 4.18303 0.574078 4.19424 0.574078 4.20593C0.574078 4.21763 0.578721 4.22884 0.586986 4.23711L0.822349 4.47247C0.83062 4.48074 0.841834 4.48538 0.853527 4.48538C0.86522 4.48538 0.876434 4.48074 0.884705 4.47247L4.811 0.546341C4.8151 0.542245 4.81836 0.537381 4.82058 0.532026C4.8228 0.526672 4.82394 0.520932 4.82394 0.515136C4.82394 0.50934 4.8228 0.5036 4.82058 0.498246C4.81836 0.492892 4.8151 0.488027 4.811 0.483931ZM0.789986 2.39396C1.24924 1.44457 1.90036 0.99358 2.78966 0.99358C3.09036 0.99358 3.36376 1.04518 3.6118 1.1501L3.22422 1.53769C3.04066 1.43975 2.83049 1.4034 2.62471 1.43401C2.41892 1.46461 2.22842 1.56055 2.08131 1.70766C1.93419 1.85477 1.83826 2.04527 1.80766 2.25106C1.77705 2.45684 1.8134 2.66702 1.91134 2.85057L1.45142 3.31049C1.19687 3.08582 0.977438 2.78143 0.789986 2.39396ZM2.15012 2.39396C2.15021 2.29674 2.17324 2.20091 2.21733 2.11427C2.26142 2.02762 2.32533 1.95259 2.40386 1.89529C2.48239 1.83798 2.57333 1.8 2.6693 1.78444C2.76526 1.76888 2.86355 1.77618 2.95616 1.80574L2.17939 2.58251C2.15992 2.52156 2.15005 2.45795 2.15012 2.39396Z" fill="white"/>
<path d="M2.7676 3.01149C2.74852 3.01149 2.72972 3.0106 2.71109 3.00889L2.41988 3.30011C2.59503 3.36718 2.78586 3.38209 2.9693 3.34302C3.15275 3.30396 3.32095 3.21259 3.45357 3.07997C3.58619 2.94734 3.67756 2.77914 3.71663 2.5957C3.7557 2.41226 3.74079 2.22142 3.67371 2.04627L3.3825 2.33748C3.38421 2.35612 3.38509 2.37492 3.38509 2.394C3.38513 2.4751 3.36919 2.55541 3.33817 2.63035C3.30716 2.70529 3.26168 2.77338 3.20433 2.83072C3.14698 2.88807 3.07889 2.93355 3.00395 2.96457C2.92902 2.99559 2.8487 3.01153 2.7676 3.01149Z" fill="white"/>
</svg>
