<svg width="5" height="5" viewBox="0 0 5 5" fill="none" xmlns="http://www.w3.org/2000/svg">
<path fill-rule="evenodd" clip-rule="evenodd" d="M2.78967 0.511124C2.25846 0.511124 1.82821 0.956216 1.82821 1.50574C1.82821 2.05527 2.25846 2.50036 2.78967 2.50036C3.32088 2.50036 3.75114 2.05527 3.75114 1.50574C3.75114 0.956216 3.32088 0.511124 2.78967 0.511124ZM3.2704 1.50575C3.2704 1.23223 3.05408 1.00844 2.78967 1.00844C2.52527 1.00844 2.30894 1.23223 2.30894 1.50575C2.30894 1.77927 2.52527 2.00306 2.78967 2.00306C3.05408 2.00306 3.2704 1.77927 3.2704 1.50575ZM4.23187 3.99229C4.1838 3.81575 3.43866 3.49498 2.78968 3.49498C2.14309 3.49498 1.40276 3.81326 1.34748 3.99229H4.23187ZM0.866734 3.99229C0.866734 3.33086 2.14789 2.99767 2.78966 2.99767C3.43144 2.99767 4.71259 3.33086 4.71259 3.99229V4.4896H0.866734V3.99229Z" fill="white"/>
</svg>
